<svg xmlns="http://www.w3.org/2000/svg" viewBox="0 0 100 100">
  <defs>
    <linearGradient id="bg" x1="0%" y1="0%" x2="100%" y2="100%">
      <stop offset="0%" stop-color="#3a7bd0" />
      <stop offset="100%" stop-color="#1a3d66" />
    </linearGradient>
    <linearGradient id="body" x1="0%" y1="0%" x2="0%" y2="100%">
      <stop offset="0%" stop-color="#eaf2fb" />
      <stop offset="100%" stop-color="#bcd6f2" />
    </linearGradient>
  </defs>
  <rect width="100" height="100" fill="url(#bg)" />
  <!-- Harmonica scaled to ~62% and centered (well inside the maskable safe zone). -->
  <g transform="translate(19,19) scale(0.62)">
    <rect x="15" y="35" width="70" height="30" rx="4" fill="url(#body)" stroke="#102a47" stroke-width="2" />
    <rect x="15" y="33" width="70" height="4" rx="2" fill="#ffffff" stroke="#102a47" stroke-width="1" />
    <rect x="15" y="63" width="70" height="4" rx="2" fill="#9cc0ea" stroke="#102a47" stroke-width="1" />
    <rect x="20" y="40" width="6" height="20" rx="1" fill="#16324f" />
    <rect x="29" y="40" width="6" height="20" rx="1" fill="#16324f" />
    <rect x="38" y="40" width="6" height="20" rx="1" fill="#16324f" />
    <rect x="47" y="40" width="6" height="20" rx="1" fill="#16324f" />
    <rect x="56" y="40" width="6" height="20" rx="1" fill="#16324f" />
    <rect x="65" y="40" width="6" height="20" rx="1" fill="#16324f" />
    <rect x="74" y="40" width="6" height="20" rx="1" fill="#16324f" />
    <circle cx="18" cy="50" r="2" fill="#102a47" />
    <circle cx="82" cy="50" r="2" fill="#102a47" />
  </g>
</svg>
